# AST/ASF file generated using VICON BodyLanguage
# -----------------------------------------------
:version 1.10
:name VICON
:units
  mass 1.0
  length 0.45
  angle deg
:documentation
   .ast/.asf automatically generated from VICON data using
   VICON BodyBuilder and BodyLanguage model FoxedUp or BRILLIANT.MOD
:root
   order TX TY TZ RX RY RZ
   axis XYZ
   position 0 0 0  
   orientation 0 0 0 
:bonedata
  begin
     id 1 
     name lhipjoint
     direction 0.610259 -0.730986 0.305356 
     length 2.50941 
     axis 0 0 0  XYZ
  end
  begin
     id 2 
     name lfemur
     direction 0.34202 -0.939693 0  
     length 7.48822  
     axis 0 0 20  XYZ
    dof rx ry rz
    limits (-160.0 20.0)
           (-70.0 70.0)
           (-60.0 70.0)
  end
  begin
     id 3 
     name ltibia
     direction 0.34202 -0.939693 0   
     length 7.60141   
     axis 0 0 20   XYZ
    dof rx
    limits (-10.0 170.0)
  end
  begin
     id 4 
     name lfoot
     direction 0.0673488 -0.185039 0.980421   
     length 2.04049   
     axis -90 7.62852e-016 20   XYZ
    dof rx rz
    limits (-45.0 90.0)
           (-70.0 20.0)
  end
  begin
     id 5 
     name ltoes
     direction 1.5356e-011 -4.21729e-011 1   
     length 1.02897   
     axis -90 7.62852e-016 20   XYZ
    dof rx
    limits (-90.0 20.0)
  end
  begin
     id 6 
     name rhipjoint
     direction -0.57612 -0.754205 0.315056   
     length 2.43216  
     axis 0 0 0  XYZ 
  end
  begin
     id 7 
     name rfemur
     direction -0.34202 -0.939693 0   
     length 7.42799   
     axis 0 0 -20   XYZ
    dof rx ry rz
    limits (-160.0 20.0)
           (-70.0 70.0)
           (-70.0 60.0)
  end
  begin
     id 8 
     name rtibia
     direction -0.34202 -0.939693 0   
     length 7.69484   
     axis 0 0 -20   XYZ
    dof rx
    limits (-10.0 170.0)
 end
 begin
     id 9 
     name rfoot
     direction -0.111837 -0.30727 0.945028   
     length 2.15769  
     axis -90 -7.62852e-016 -20   XYZ
    dof rx rz
    limits (-45.0 90.0)
           (-20.0 70.0)
  end
  begin
     id 10 
     name rtoes
     direction -1.53539e-011 -4.21878e-011 1   
     length 1.07391   
     axis -90 -7.62852e-016 -20   XYZ
    dof rx
    limits (-90.0 20.0)
  end
  begin
     id 11 
     name lowerback
     direction 0.00552624 0.990109 -0.140195   
     length 2.12403   
     axis 0 0 0   XYZ
    dof rx ry rz
    limits (-20.0 45.0)
           (-30.0 30.0)
           (-30.0 30.0)
  end
  begin
     id 12 
     name upperback
     direction 0.00361898 0.999976 -0.00584723   
     length 2.13232   
     axis 0 0 0   XYZ
    dof rx ry rz
    limits (-20.0 45.0)
           (-30.0 30.0)
           (-30.0 30.0)
  end
  begin
     id 13 
     name thorax
     direction -0.000331275 0.998253 0.0590847   
     length 2.17688   
     axis 0 0 0   XYZ
    dof rx ry rz
    limits (-20.0 45.0)
           (-30.0 30.0)
           (-30.0 30.0)
  end
  begin
     id 14 
     name lowerneck
     direction -0.0561561 0.979832 0.19177   
     length 1.64159   
     axis 0 0 0   XYZ
    dof rx ry rz
    limits (-20.0 45.0)
           (-30.0 30.0)
           (-30.0 30.0)
  end
  begin
     id 15 
     name upperneck
     direction 0.0827153 0.979385 -0.184293   
     length 1.68939   
     axis 0 0 0   XYZ
    dof rx ry rz
    limits (-20.0 45.0)
           (-30.0 30.0)
           (-30.0 30.0)
  end
  begin
     id 16
     name head
     direction 0.0278583 0.995936 -0.0856488  
     length 1.70207  
     axis 0 0 0   XYZ
    dof rx ry rz
    limits (-20.0 45.0)
           (-30.0 30.0)
           (-30.0 30.0)
  end
  begin
     id 17 
     name lclavicle
     direction 0.950993 0.301131 -0.0702275  
     length 3.41652  
     axis 0 0 0   XYZ
    dof ry rz
    limits (-20.0 10.0)
           (0.0 20.0)
  end
  begin
     id 18 
     name lhumerus
     direction 1 -4.48981e-011 -3.9662e-029   
     length 5.32955   
     axis 180 -30 -90   XYZ
    dof rx ry rz
    limits (-60.0 90.0)
           (-90.0 90.0)
           (-90.0 90.0)
  end
  begin
     id 19
     name lradius
     direction 1 -4.48925e-011 -9.0549e-027   
     length 3.69232   
     axis 180 -30 -90   XYZ
    dof rx
    limits (-10.0 170.0)
  end
  begin
     id 20
     name lwrist
     direction 1 -4.49007e-011 -1.49005e-026   
     length 1.84616   
     axis 9.0955e-015 90 90   XYZ
    dof ry
    limits (-180.0 0.0)
 end
  begin
     id 21 
     name lhand
     direction 1 -4.49016e-011 -2.98023e-026   
     length 0.536598   
     axis 1.90115e-014 90 90   XYZ
    dof rx rz
    limits (-90.0 90.0)
           (-45.0 45.0)
  end
  begin
     id 22 
     name lfingers
     direction 1 -4.48924e-011 -5.9578e-026   
     length 0.432619   
     axis 3.80223e-014 90 90   XYZ
    dof rx
    limits (0.0 90.0)
  end
  begin
     id 23
     name lthumb
     direction 0.707107 -6.34947e-011 0.707107   
     length 0.621157   
     axis -90 45 -3.84942e-014   XYZ
    dof rx rz
    limits (-45.0 45.0)
           (-45.0 45.0)
  end
  begin
     id 24 
     name rclavicle
     direction -0.955495 0.276497 -0.102848   
     length 3.36357  
     axis 0 0 0   XYZ 
    dof ry rz
    limits (-10.0 20.0)
           (-20.0 0.0)
  end
  begin
     id 25 
     name rhumerus
     direction -1 -4.48961e-011 3.30983e-027  
     length 5.23431   
     axis 180 30 90   XYZ
    dof rx ry rz
    limits (-90.0 60.0)
           (-90.0 90.0)
           (-90.0 90.0)
  end
  begin
     id 26 
     name rradius
     direction -1 -4.48965e-011 -6.63263e-027   
     length 3.55301   
     axis 180 30 90   XYZ
    dof rx
    limits (-10.0 170.0)
  end
  begin
     id 27 
     name rwrist
     direction -1 -4.48942e-011 -1.48958e-026   
     length 1.77651   
     axis 9.0955e-015 -90 -90   XYZ
    dof ry
    limits (-180.0 0.0)
  end
  begin
     id 28
     name rhand
     direction -1 -4.48977e-011 -2.97966e-026   
     length 0.772522   
     axis 1.90115e-014 -90 -90   XYZ
    dof rx rz
    limits (-90.0 90.0)
           (-45.0 45.0)
  end
  begin
     id 29
     name rfingers
     direction -1 -4.49135e-011 -5.96389e-026   
     length 0.622827   
     axis 3.80223e-014 -90 -90   XYZ
    dof rx
    limits (0.0 90.0)
  end
  begin
     id 30
     name rthumb
     direction -0.707107 -6.34969e-011 0.707107   
     length 0.894259   
     axis -90 -45 3.84942e-014   XYZ
    dof rx rz
    limits (-45.0 45.0)
           (-45.0 45.0)
  end
:hierarchy
  begin
    root lhipjoint rhipjoint lowerback
    lhipjoint lfemur
    lfemur ltibia
    ltibia lfoot
    lfoot ltoes
    rhipjoint rfemur
    rfemur rtibia
    rtibia rfoot
    rfoot rtoes
    lowerback upperback
    upperback thorax
    thorax lowerneck lclavicle rclavicle
    lowerneck upperneck
    upperneck head
    lclavicle lhumerus
    lhumerus lradius
    lradius lwrist
    lwrist lhand lthumb
    lhand lfingers
    rclavicle rhumerus
    rhumerus rradius
    rradius rwrist
    rwrist rhand rthumb
    rhand rfingers
  end

#!OML:ASF F:\VICON\USERDATA\INSTALL\rory3\rory3.ASF
:FULLY-SPECIFIED
:DEGREES
308
root -3.70255 18.2773 -11.1807 -0.350545 -70.4555 1.01335
lowerback 11.079 0.873899 -0.836135
upperback 1.67775 1.0411 0.532371
thorax -4.48359 0.511721 0.874135
lowerneck -8.93614 -2.99379 -11.3859
upperneck 42.6307 -5.7249 4.8386
head 17.8181 -4.15858 3.14778
rclavicle 1.96051e-014 -7.15625e-015
rhumerus -28.9102 -11.1175 -78.1832
rradius 31.3432
rwrist 6.72757
rhand -15.4633 7.694
rfingers 7.12502
rthumb 10.7179 -22.0126
lclavicle 1.96051e-014 -7.15625e-015
lhumerus -35.1261 2.92918 85.6911
lradius 38.1225
lwrist -5.84342
lhand -17.2519 25.6211
lfingers 7.12502
lthumb 8.99229 55.4094
rfemur -16.3636 3.73639 16.1858
rtibia 30.1501
rfoot -1.85494 -5.11601
rtoes -3.49007
lfemur -1.89232 -11.9338 -20.0464
ltibia 38.2559
lfoot 8.26666 -16.3037
ltoes -10.8081
309
root -3.58138 18.2556 -11.1644 -0.2951 -70.6659 0.964217
lowerback 10.9699 0.81311 -0.814861
upperback 1.69445 0.963022 0.517281
thorax -4.40325 0.472407 0.859312
lowerneck -8.86338 -2.97066 -11.2255
upperneck 42.3993 -5.68396 4.75988
head 17.6418 -4.11767 3.08494
rclavicle -8.69683e-016 -3.37934e-015
rhumerus -28.8046 -11.5649 -78.0473
rradius 31.1933
rwrist 6.93254
rhand -15.1755 7.67453
rfingers 7.12502
rthumb 10.9955 -22.0175
lclavicle -8.69683e-016 -3.37934e-015
lhumerus -34.9975 2.79535 85.7393
lradius 38.2035
lwrist -5.70264
lhand -17.2197 25.4731
lfingers 7.12502
lthumb 9.02332 55.2601
rfemur -16.8189 4.17321 15.9019
rtibia 30.2276
rfoot -1.82849 -5.19261
rtoes -1.57594
lfemur -0.930546 -12.3882 -20.1823
ltibia 36.6932
lfoot 10.2684 -16.6162
ltoes -7.01372
310
root -3.456 18.2388 -11.1476 -0.722742 -70.9542 1.32066
lowerback 11.0547 0.844895 -0.919265
upperback 1.67581 0.988569 0.444266
thorax -4.4708 0.486444 0.837195
lowerneck -8.75765 -2.97946 -11.1145
upperneck 42.3071 -5.77528 4.8388
head 17.5672 -4.12843 3.08503
rclavicle -3.38928e-014 0
rhumerus -28.9092 -11.9878 -77.9222
rradius 31.1977
rwrist 6.87344
rhand -14.9648 7.63255
rfingers 7.12502
rthumb 11.1987 -22.0486
lclavicle -3.38928e-014 0
lhumerus -34.9211 2.34543 85.86
lradius 38.2869
lwrist -5.35909
lhand -17.6529 25.5233
lfingers 7.12502
lthumb 8.60526 55.3279
rfemur -17.2682 4.83188 15.4252
rtibia 30.4342
rfoot -2.03349 -5.36946
rtoes 2.35635
lfemur 0.23178 -12.781 -20.5601
ltibia 34.8756
lfoot 11.0092 -17.1806
ltoes -7.23369
311
root -3.32712 18.1891 -11.131 -1.00496 -71.2482 1.70245
lowerback 10.9075 0.90408 -1.06131
upperback 1.66103 1.04997 0.388411
thorax -4.40743 0.518856 0.851714
lowerneck -8.81489 -3.06522 -10.9947
upperneck 42.2659 -5.94299 4.8585
head 17.5738 -4.17344 3.04135
rclavicle 2.0276e-014 -1.98785e-015
rhumerus -28.9471 -12.1501 -77.7763
rradius 31.2351
rwrist 6.65946
rhand -15.1154 7.56818
rfingers 7.12502
rthumb 11.0535 -22.1208
lclavicle 2.0276e-014 -1.98785e-015
lhumerus -34.7655 1.92458 86.0658
lradius 38.3671
lwrist -5.14715
lhand -18.1368 25.8974
lfingers 7.12502
lthumb 8.13832 55.7207
rfemur -17.9567 4.73639 15.1807
rtibia 30.627
rfoot -1.74118 -5.12616
rtoes -3.16294
lfemur 1.2786 -13.1228 -20.9194
ltibia 32.9758
lfoot 10.269 -17.964
ltoes -7.92412
312
root -3.20001 18.1585 -11.1114 -0.977755 -71.6033 1.80611
lowerback 10.6824 0.924577 -1.09112
upperback 1.65766 1.07576 0.35961
thorax -4.28665 0.531815 0.837714
lowerneck -8.97916 -3.11497 -11.0253
upperneck 42.3185 -6.05078 4.96538
head 17.6687 -4.21055 3.07595
rclavicle 4.11236e-014 2.78299e-015
rhumerus -28.8834 -12.1638 -77.6184
rradius 31.2392
rwrist 6.54472
rhand -15.0558 7.66066
rfingers 7.12502
rthumb 11.1109 -22.0252
lclavicle 4.11236e-014 2.78299e-015
lhumerus -34.6033 1.6867 86.215
lradius 38.5292
lwrist -4.8635
lhand -17.9656 26.1561
lfingers 7.12502
lthumb 8.30352 55.9729
rfemur -18.5666 5.10201 14.8211
rtibia 30.7158
rfoot -1.88654 -5.09533
rtoes -0.610263
lfemur 2.29009 -13.2785 -21.1465
ltibia 31.1144
lfoot 6.46611 -18.5102
ltoes -12.282
313
root -3.07084 18.1472 -11.0896 -0.536454 -71.9553 1.4087
lowerback 10.5936 0.891647 -0.984496
upperback 1.62934 1.04787 0.402116
thorax -4.26516 0.517106 0.826795
lowerneck -9.03547 -3.12545 -11.1319
upperneck 42.3512 -6.069 5.013
head 17.7137 -4.23368 3.11283
rclavicle 3.00662e-014 4.77083e-015
rhumerus -28.86 -12.1595 -77.454
rradius 31.2675
rwrist 6.53147
rhand -14.5253 7.97501
rfingers 7.12502
rthumb 11.6226 -21.6827
lclavicle 3.00662e-014 4.77083e-015
lhumerus -34.5061 1.74687 86.2818
lradius 38.6699
lwrist -4.79274
lhand -17.7868 26.0373
lfingers 7.12502
lthumb 8.47609 55.8472
rfemur -19.0298 5.46074 14.6019
rtibia 30.6603
rfoot -2.02064 -5.00168
rtoes 3.26335
lfemur 3.21483 -13.413 -21.2243
ltibia 29.407
lfoot 3.07126 -18.1475
ltoes -13.1879
314
root -2.93737 18.1198 -11.0675 -0.084856 -72.3133 1.0813
lowerback 10.4614 0.852965 -0.985789
upperback 1.58367 1.0021 0.470172
thorax -4.23964 0.495636 0.906075
lowerneck -9.08239 -3.10746 -11.1149
upperneck 42.3151 -6.03706 4.99111
head 17.6979 -4.22158 3.10258
rclavicle 1.55052e-014 -5.1684e-015
rhumerus -28.7789 -12.1137 -77.3626
rradius 31.2982
rwrist 6.39875
rhand -14.1387 8.27372
rfingers 7.12502
rthumb 11.9954 -21.3625
lclavicle 1.55052e-014 -5.1684e-015
lhumerus -34.3696 1.91295 86.3134
lradius 38.7484
lwrist -4.94113
lhand -17.6101 25.7442
lfingers 7.12502
lthumb 8.64661 55.5472
rfemur -19.6803 5.25799 14.5708
rtibia 30.5302
rfoot -1.58378 -4.48341
rtoes -1.72704
lfemur 3.87927 -13.3421 -21.3242
ltibia 27.7488
lfoot 0.791305 -17.3975
ltoes -14.3155
315
root -2.8025 18.0938 -11.0465 0.230909 -72.7349 0.960824
lowerback 10.2991 0.843058 -1.12126
upperback 1.54053 0.981039 0.562924
thorax -4.19791 0.488479 1.0834
lowerneck -9.21774 -3.04744 -11.1672
upperneck 42.3257 -5.95312 5.06654
head 17.7342 -4.18724 3.16001
rclavicle -4.16951e-014 3.57812e-015
rhumerus -28.6202 -11.8428 -77.289
rradius 31.365
rwrist 6.01074
rhand -14.0819 8.4615
rfingers 7.12502
rthumb 12.0501 -21.1716
lclavicle -4.16951e-014 3.57812e-015
lhumerus -34.209 2.01281 86.4317
lradius 38.8516
lwrist -5.01683
lhand -17.4919 25.7164
lfingers 7.12502
lthumb 8.76066 55.5146
rfemur -20.2693 5.43097 14.3359
rtibia 30.2271
rfoot -1.34518 -4.22303
rtoes -2.1987
lfemur 4.27282 -12.9329 -21.5049
ltibia 26.3553
lfoot -1.35584 -16.9349
ltoes -17.0135
316
root -2.66631 18.0797 -11.0226 -0.0646306 -73.2185 1.3644
lowerback 10.2996 0.883734 -1.37189
upperback 1.48306 1.01025 0.608708
thorax -4.26419 0.508188 1.26781
lowerneck -9.31603 -3.00663 -11.1878
upperneck 42.4623 -5.89714 5.04895
head 17.8346 -4.17907 3.16549
rclavicle -2.55935e-014 -6.55989e-015
rhumerus -28.5486 -11.6638 -77.183
rradius 31.4744
rwrist 5.84438
rhand -14.1099 8.33647
rfingers 7.12502
rthumb 12.0231 -21.2982
lclavicle -2.55935e-014 -6.55989e-015
lhumerus -34.1336 2.05515 86.595
lradius 38.9582
lwrist -4.9502
lhand -17.6593 25.678
lfingers 7.12502
lthumb 8.59915 55.4829
rfemur -20.6365 5.9393 13.7818
rtibia 29.8282
rfoot -1.42588 -4.42756
rtoes 4.92912
lfemur 4.64431 -12.4117 -21.942
ltibia 25.21
lfoot -2.74966 -16.165
ltoes -17.6825
317
root -2.52561 18.0546 -10.9966 -0.493395 -73.6975 1.86443
lowerback 10.3363 0.93853 -1.52072
upperback 1.43931 1.06388 0.555025
thorax -4.33372 0.537675 1.28755
lowerneck -9.39139 -3.02027 -11.0418
upperneck 42.6032 -5.96511 4.99828
head 17.938 -4.19956 3.10326
rclavicle 8.2595e-014 -1.63003e-014
rhumerus -28.4476 -11.9145 -77.113
rradius 31.4489
rwrist 6.09022
rhand -14.0237 8.28472
rfingers 7.12502
rthumb 12.1063 -21.345
lclavicle 8.2595e-014 -1.63003e-014
lhumerus -34.0316 1.76378 86.7471
lradius 39.0637
lwrist -4.45582
lhand -18.3097 25.925
lfingers 7.12502
lthumb 7.97145 55.7547
rfemur -21.1085 5.53581 13.4995
rtibia 29.4079
rfoot -1.023 -4.07168
rtoes 4.33024
lfemur 5.01153 -11.9185 -22.4499
ltibia 24.1409
lfoot -3.86513 -14.8392
ltoes -18.1035
318
root -2.38032 18.0329 -10.9756 -0.823064 -74.1598 2.35638
lowerback 10.2755 0.979436 -1.67505
upperback 1.4471 1.09933 0.499797
thorax -4.2948 0.556893 1.31288
lowerneck -9.49815 -3.07737 -10.9239
upperneck 42.6246 -6.03907 4.88597
head 17.9779 -4.22537 3.01316
rclavicle -2.7805e-014 1.59028e-015
rhumerus -28.2139 -12.0804 -77.1232
rradius 31.4426
rwrist 6.32617
rhand -13.9658 8.30775
rfingers 7.12502
rthumb 12.1621 -21.3187
lclavicle -2.7805e-014 1.59028e-015
lhumerus -33.7779 1.39563 86.914
lradius 39.1839
lwrist -3.68398
lhand -19.0976 26.396
lfingers 7.12502
lthumb 7.21097 56.2531
rfemur -21.6888 5.11414 13.2635
rtibia 28.9225
rfoot -0.35461 -3.44489
rtoes 0.820485
lfemur 5.10991 -11.3001 -22.8642
ltibia 23.233
lfoot -5.19205 -13.4056
ltoes -19.2551
319
root -2.23445 18.0227 -10.9541 -1.05779 -74.6621 2.71883
lowerback 10.2973 1.01877 -1.75473
upperback 1.44385 1.13973 0.451669
thorax -4.31236 0.577802 1.30171
lowerneck -9.54363 -3.09722 -11.0261
upperneck 42.6183 -6.1008 5.01042
head 18.0059 -4.25344 3.07794
rclavicle 9.59136e-015 -7.15625e-015
rhumerus -27.9805 -12.1282 -77.1701
rradius 31.4253
rwrist 6.36293
rhand -14.164 8.28134
rfingers 7.12502
rthumb 11.971 -21.3563
lclavicle 9.59136e-015 -7.15625e-015
lhumerus -33.5329 1.34753 86.9577
lradius 39.1807
lwrist -3.43605
lhand -19.4039 26.2558
lfingers 7.12502
lthumb 6.91525 56.1228
rfemur -22.1423 5.12774 12.9603
rtibia 28.366
rfoot 0.289053 -2.97352
rtoes -0.05701
lfemur 5.09587 -10.6575 -23.2271
ltibia 22.4721
lfoot -6.12661 -12.2257
ltoes -19.6391
320
root -2.08963 18.0148 -10.9313 -1.51194 -75.1471 3.36521
lowerback 10.3912 0.983948 -1.88901
upperback 1.31285 1.07358 0.362249
thorax -4.49974 0.550023 1.29118
lowerneck -9.47617 -2.97435 -11.1318
upperneck 42.6044 -5.9983 5.22696
head 17.9793 -4.21046 3.21771
rclavicle 6.26669e-014 5.1684e-015
rhumerus -27.8881 -12.2763 -77.2414
rradius 31.3714
rwrist 6.46263
rhand -14.1774 8.44392
rfingers 7.12502
rthumb 11.9581 -21.1945
lclavicle 6.26669e-014 5.1684e-015
lhumerus -33.4808 1.70036 86.7887
lradius 39.0575
lwrist -3.47018
lhand -19.3059 26.0651
lfingers 7.12502
lthumb 7.00986 55.929
rfemur -22.6954 4.83566 12.6529
rtibia 27.8687
rfoot 0.903451 -2.36904
rtoes -1.14245
lfemur 5.00787 -10.0676 -23.6725
ltibia 21.6816
lfoot -6.68509 -11.1467
ltoes -20.812
321
root -1.95873 18.0139 -10.9292 -2.52296 -76.0954 4.82885
lowerback 10.0726 1.12157 -2.55895
upperback 1.19181 1.18692 0.269605
thorax -4.46483 0.619078 1.55934
lowerneck -9.43369 -2.80583 -11.0699
upperneck 42.4818 -5.76806 5.26881
head 17.8583 -4.10211 3.26427
rclavicle 1.40889e-014 -1.43125e-014
rhumerus -27.7201 -12.5182 -77.3852
rradius 31.3218
rwrist 6.49039
rhand -13.7661 8.76924
rfingers 7.12502
rthumb 12.3546 -20.8457
lclavicle 1.40889e-014 -1.43125e-014
lhumerus -33.293 2.08027 86.4974
lradius 38.8307
lwrist -3.48419
lhand -19.6269 26.0044
lfingers 7.12502
lthumb 6.7 55.8784
rfemur -23.5998 5.11989 12.2079
rtibia 27.4333
rfoot 1.44399 -2.08977
rtoes -1.693
lfemur 4.69918 -8.93299 -24.1367
ltibia 20.8872
lfoot -7.12995 -10.1717
ltoes -21.6157
